Open Season In 3D  Blu ray rip  3DTV Active Shutter (side by side)

 
http://www.imdb.com/title/tt0400717/

Media length: 01:26:15

Video
ID                             : 1
Format                         : AVC
Format/Info                    : Advanced Video Codec
Format profile                 : High@L5.1
Format settings, CABAC         : Yes
Format settings, ReFrames      : 2 frames
Format settings, GOP           : M=3, N=15
Codec ID                       : V_MPEG4/ISO/AVC
Duration                       : 1h 26mn
Bit rate mode                  : Variable
Bit rate                       : 12.3 Mbps
Maximum bit rate               : 18.8 Mbps
Width                          : 1 920 pixels
Height                         : 1 080 pixels
Display aspect ratio           : 16:9
Frame rate                     : 23.976 fps
Color space                    : YUV
Chroma subsampling             : 4:2:0
Bit depth                      : 8 bits
Scan type                      : Progressive
Bits/(Pixel*Frame)             : 0.247
Stream size                    : 7.39 GiB (93%)
Default                        : Yes
Forced                         : No

Audio
ID                             : 2
Format                         : AC-3
Format/Info                    : Audio Coding 3
Mode extension                 : CM (complete main)
Codec ID                       : A_AC3
Duration                       : 1h 26mn
Bit rate mode                  : Constant
Bit rate                       : 640 Kbps
Channel(s)                     : 6 channels
Channel positions              : Front: L C R, Side: L R, LFE
Sampling rate                  : 48.0 KHz
Bit depth                      : 16 bits
Compression mode               : Lossy
Stream size                    : 395 MiB (5%)
Default                        : Yes
Forced                         : No